<svg width="278" height="103" viewBox="0 0 278 103" fill="none" xmlns="http://www.w3.org/2000/svg">
<path d="M3.58716 59.676C3.58716 48.6421 4.04891 37.4986 3.34167 26.4857C3.13845 23.3214 3.14379 19.5337 2.16331 16.4697C1.60327 14.7196 3.51367 19.9157 4.52002 21.4532C6.63424 24.6832 10.701 29.4509 15.1007 29.1125C17.3351 28.9406 18.4488 25.1989 19.1512 23.4907C20.4036 20.4454 21.0849 17.2797 21.2379 13.9903C21.3441 11.7082 22.2173 6.47567 20.3787 4.63709C19.6886 3.947 19.982 6.8712 19.9859 6.92015C20.3606 11.6042 21.2742 16.2304 22.1462 20.8395C23.9795 30.5294 26.0651 40.8649 30.9839 49.5618C32.1222 51.5745 34.498 55.6991 37.1702 55.6991" stroke="#1262DB" stroke-width="3" stroke-linecap="round"/>
<path d="M48.2176 35.3725C48.2176 33.3034 48.1514 33.2531 46.2536 32.8194C44.128 32.3335 40.0871 32.2242 38.2998 33.654C34.6425 36.5798 35.362 42.6547 35.403 46.7141C35.4481 51.1827 37.0353 55.7721 41.5893 57.2211C46.9804 58.9364 46.45 43.3761 46.45 39.7913C46.45 39.1342 46.1409 33.0925 46.3518 33.2612C49.2643 35.5912 50.2658 40.1847 52.3909 43.1791C53.3604 44.5451 57.1987 51.4679 59.2892 51.2066C61.3691 50.9466 62.549 46.9015 63.1434 45.3885C64.7699 41.2482 65.9035 36.8039 66.3348 32.3775C66.8383 27.2093 66.7766 22.0227 66.7766 16.8379C66.7766 13.2101 66.7676 10.0601 65.451 6.67463C65.046 5.63317 64.3531 2.94372 63.4625 2.23126C62.7566 1.66651 63.9977 3.98896 64.1253 4.24428C65.5846 7.16283 67.2274 9.9354 68.5442 12.9346C73.2028 23.5459 75.9068 35.2167 78.7075 46.4195" stroke="#1262DB" stroke-width="3" stroke-linecap="round"/>
<path d="M84.4519 21.2322C85.2508 20.3192 81.5679 21.9096 81.3097 22.0178C78.2006 23.3206 75.2667 24.9957 72.1283 26.2402C71.7946 26.3726 67.6653 27.5782 67.955 28.3024C68.4277 29.4841 72.643 31.2815 73.6504 31.862C78.2571 34.5167 83.03 37.4788 87.2996 40.6505C88.833 41.7896 91.5492 42.9389 92.4058 44.652" stroke="#1262DB" stroke-width="3" stroke-linecap="round"/>
<path d="M95.4988 22.1159C99.4293 22.1159 103.011 16.4873 103.011 12.8364C103.011 9.14753 97.6346 9.47316 95.3024 11.3144C90.2653 15.291 90.6404 24.9705 93.2894 30.0698C95.3206 33.9799 99.7469 36.0922 103.895 36.8699C108.949 37.8176 111.427 35.2946 114.5 31.8373" stroke="#1262DB" stroke-width="3" stroke-linecap="round"/>
<path d="M154.269 13.2783C154.269 8.93017 151.891 4.0306 147.42 2.94313C139.654 1.05413 136.706 13.2746 136.226 18.8018C135.722 24.5979 135.266 34.9652 143.492 35.3479C151.514 35.721 155.065 26.0966 156.405 19.5628C157.059 16.3731 157.362 6.58526 157.362 9.84141C157.362 15.9229 158.702 23.5459 162.027 28.6951C166.974 36.3581 179.013 31.2373 184.121 26.633C187.511 23.5767 190.706 20.2583 193.695 16.8133C194.649 15.714 195.533 14.0495 196.69 13.2783" stroke="#1262DB" stroke-width="3" stroke-linecap="round"/>
<path d="M87.1033 71.6069C85.6463 71.6069 84.4052 71.1821 83.0282 70.7231C79.8505 69.6639 76.6616 69.3974 73.3313 69.3974C69.2168 69.3974 66.5364 70.3646 65.7457 74.7982C64.5668 81.4085 65.8532 89.3408 69.1825 95.1494C71.1373 98.5599 77.3618 103.706 81.3588 100.28C83.7045 98.2696 84.4984 95.0765 84.8939 92.1299C85.4733 87.8134 86.2851 83.457 86.6369 79.1189C87.2062 72.0977 85.9858 51.1428 87.5698 58.0067C88.9281 63.8928 90.7996 70.0592 93.2651 75.5593C95.1238 79.7056 97.0973 84.042 101.685 85.9189C105.341 87.4144 107.803 81.7857 109.345 79.5117C111.063 76.9785 113.174 73.0773 113.174 69.9375C113.174 68.8835 112.215 67.7777 112.487 68.17C114.918 71.6818 117.219 75.2254 119.115 79.0698C120.485 81.847 121.566 84.6986 122.798 87.5146C123.057 88.1067 122.023 86.3795 121.963 86.2381C120.683 83.2203 119.779 79.6356 119.459 76.3694C118.897 70.6421 120.89 69.483 125.351 66.8443C127.888 65.3435 131.046 64.2324 133.943 63.653" stroke="#1262DB" stroke-width="3" stroke-linecap="round"/>
<path d="M150.292 63.653C150.163 62.6196 143.927 63.2111 143.05 63.2111C138.518 63.2111 136.205 63.009 134.876 67.8509C133.689 72.1731 132.813 79.5854 134.63 83.8814C135.576 86.1168 139.356 86.258 141.357 86.189C146.229 86.021 148.858 80.605 150.366 76.6149C152.229 71.6872 152.502 66.6454 152.502 61.4681C152.502 60.2127 152.679 61.2183 152.846 61.8855C153.355 63.9239 153.839 65.9703 154.49 67.9736C155.495 71.0662 156.93 74.6347 159.793 76.443C162.358 78.0629 164.3 76.158 164.629 73.5708C165.181 69.2306 165.316 64.9287 165.316 60.5598C165.316 55.926 168.507 69.2609 170.079 73.6199C170.308 74.2557 172.475 80.332 173.712 77.7932C175.774 73.5607 175.729 68.5872 177.689 64.3404C178.689 62.1742 178.787 60.0218 180.782 63.0147C182.851 66.1174 184.117 69.6632 186.085 72.8343C188.202 76.2457 187.838 70.4481 187.852 68.7101C187.9 63.0028 187.498 56.8546 188.736 51.2803" stroke="#1262DB" stroke-width="3" stroke-linecap="round"/>
<path d="M195.806 48.187C195.806 60.309 202.434 71.7822 202.434 83.9795" stroke="#1262DB" stroke-width="3" stroke-linecap="round"/>
<path d="M194.481 40.2331C195.654 38.9294 196.06 35.2678 194.26 34.2677C192.306 33.1821 194.01 36.2275 194.481 36.6981" stroke="#1262DB" stroke-width="3" stroke-linecap="round"/>
<path d="M203.76 47.3033C203.984 48.6478 204.905 49.9052 205.528 51.0838C207.282 54.404 208.664 57.9601 210.118 61.419C211.644 65.0468 214.436 76.554 213.482 72.7361C212.088 67.1597 211.714 62.2786 211.714 56.5091C211.714 53.4391 210.799 48.4462 212.254 45.5357C212.747 44.5495 215.163 45.1055 215.716 45.6585C219.63 49.5733 220.931 57.4457 222.565 62.5237C223.017 63.9301 224.246 67.5909 226.542 66.6724C228.506 65.8869 229.822 62.7878 230.715 61.0016" stroke="#1262DB" stroke-width="3" stroke-linecap="round"/>
<path d="M243.529 34.0468C242.505 33.1362 240.246 33.5527 239.012 33.7031C235.58 34.1216 232.521 35.5673 230.985 38.8093C227.801 45.5306 226.451 60.0688 237.294 60.0688C241.671 60.0688 245.821 58.5636 248.046 54.5207C250.314 50.4016 250.893 44.8911 248.611 40.7241C244.256 32.771 247.515 47.6311 247.924 49.3899C250.857 62.0026 253.648 74.6419 256.246 87.3182C256.833 90.1852 257.725 94.5398 255.436 96.9169C253.357 99.0756 248.729 99.2524 246.033 98.7089C241.513 97.7976 238.094 95.7768 236.778 91.1233C234.94 84.6197 237.562 78.0793 241.025 72.7361C251.526 56.5374 268.022 43.9524 275.787 26.0929" stroke="#1262DB" stroke-width="3" stroke-linecap="round"/>
</svg>
