<svg width="1920" height="1080" viewBox="0 0 1920 1080" fill="none" xmlns="http://www.w3.org/2000/svg">
<g>
  <path d="M780.025 504.165V603.965H764.638V504.165H780.025ZM765.2 577.202L808.175 534.652H827.3L775.875 585.39L765.2 577.215V577.202ZM801.788 567.777L828.4 603.952H810.663L784.05 567.777H801.788Z" fill="black"/>
  <path d="M900.751 534.652V603.952H884.676V595.502C882.176 598.927 879.126 601.527 875.526 603.327C871.926 605.127 867.676 606.027 862.776 606.027C857.138 606.027 852.451 604.827 848.701 602.427C844.963 600.027 842.163 596.765 840.313 592.652C838.463 588.54 837.538 583.852 837.538 578.577V534.64H853.613V578.577C853.613 584.302 854.488 588.377 856.251 590.777C858.001 593.177 861.151 594.377 865.676 594.377C871.963 594.377 876.701 592.277 879.888 588.065C883.076 583.865 884.676 577.652 884.676 569.427V534.64H900.751V534.652Z" fill="black"/>
  <path d="M933.463 534.652V544.627C935.863 540.565 938.938 537.54 942.675 535.552C946.413 533.565 950.788 532.577 955.775 532.577C961.5 532.577 966.263 533.752 970.05 536.115C973.838 538.477 976.65 541.702 978.5 545.815C980.35 549.927 981.275 554.615 981.275 559.89V603.965H965.2V559.89C965.2 554.252 964.3 550.24 962.5 547.827C960.7 545.427 957.625 544.227 953.288 544.227C946.45 544.227 941.438 546.327 938.25 550.54C935.063 554.74 933.463 560.915 933.463 569.04V603.977H917.388V534.677H933.463V534.652Z" fill="black"/>
  <path d="M1011.91 589.753C1012.84 591.465 1014.39 592.753 1016.55 593.628C1018.73 594.503 1021.7 594.94 1025.49 594.94C1030.94 594.94 1034.7 594.153 1036.79 592.578C1038.86 591.003 1039.9 588.465 1039.9 584.953C1039.9 582.928 1039.46 581.215 1038.59 579.828C1037.71 578.44 1036.11 577.315 1033.8 576.428C1031.49 575.553 1028.25 574.878 1024.1 574.415C1018.38 573.49 1013.45 572.315 1009.34 570.878C1005.23 569.453 1001.85 567.303 999.226 564.428C996.601 561.553 995.363 557.865 995.551 553.34C995.551 549.928 996.588 546.615 998.663 543.428C1000.74 540.24 1003.98 537.628 1008.36 535.59C1012.75 533.553 1018.23 532.54 1024.79 532.54C1030.89 532.54 1036.13 533.465 1040.53 535.315C1044.91 537.165 1048.26 539.665 1050.58 542.803C1052.89 545.94 1054.04 549.315 1054.04 552.928H1037.69C1037.69 550.803 1037.29 549.04 1036.51 547.665C1035.73 546.278 1034.41 545.265 1032.56 544.615C1030.71 543.965 1028.13 543.64 1024.8 543.64C1019.71 543.64 1016.3 544.49 1014.54 546.203C1012.79 547.915 1011.9 550.153 1011.9 552.928C1011.81 554.778 1012.26 556.228 1013.29 557.29C1014.3 558.353 1015.8 559.215 1017.79 559.853C1019.78 560.503 1022.8 561.153 1026.86 561.79C1036.94 563.09 1044.35 565.49 1049.11 569.003C1053.88 572.515 1056.25 577.69 1056.25 584.528C1056.25 588.69 1055 592.353 1052.51 595.54C1050.01 598.728 1046.44 601.265 1041.78 603.165C1037.11 605.053 1031.68 606.003 1025.49 606.003C1018.93 606.003 1013.29 604.965 1008.58 602.89C1003.86 600.815 1000.28 597.99 997.838 594.44C995.388 590.89 994.163 586.978 994.163 582.728H1010.53C1010.53 585.69 1010.99 588.015 1011.91 589.728V589.753Z" fill="black"/>
  <path d="M1104.93 546.303H1064.04V534.665H1104.93V546.303ZM1090.38 513.303V584.128C1090.38 586.165 1090.59 587.753 1091 588.915C1091.41 590.078 1092.09 590.878 1093.01 591.34C1093.94 591.803 1095.14 592.028 1096.61 592.028H1104.93V603.953H1096.61C1092.64 603.953 1088.96 603.103 1085.59 601.39C1082.21 599.678 1079.54 597.353 1077.55 594.39C1075.56 591.428 1074.58 588.015 1074.58 584.128V513.303H1090.38Z" fill="black"/>
</g>
<path class="intro-animated-bar" id="1-yellow" d="M630.415 660.61L662.04 692.235L732.753 621.535L716.94 605.723L701.128 589.898L630.415 660.61Z" fill="#F3F417"/>
<path class="intro-animated-bar" id="2-darkpink" d="M950.713 750.328L982.337 718.703L911.637 647.99L895.825 663.803L880 679.615L950.713 750.328Z" fill="#DD01A3"/>
<path class="intro-animated-bar" id="3-darkgreen" d="M694.181 466.703L725.806 498.328L796.519 427.628L780.706 411.815L764.894 395.99L694.181 466.703Z" fill="#0D8A3F"/>
<path class="intro-animated-bar" id="4-blue" d="M1084.48 682.703L1116.11 714.328L1186.82 643.628L1171.01 627.815L1155.2 611.99L1084.48 682.703Z" fill="#1262DB"/>
<path class="intro-animated-bar" id="5-red" d="M950.71 481.485L982.576 450.102L912.417 378.852L896.484 394.544L880.539 410.235L950.71 481.485Z" fill="#FF2C00"/>
<path class="intro-animated-bar" id="6-lightpink" d="M1119.68 674.662L1151.62 705.967L1221.62 634.561L1205.65 618.908L1189.68 603.242L1119.68 674.662Z" fill="#F464BB"/>
<path class="intro-animated-bar" id="7-lightgreen" d="M612.892 604.527L652.644 625.023L698.476 536.152L678.601 525.904L658.721 515.644L612.892 604.527Z" fill="#B5E500"/>
<path class="intro-animated-bar" id="8-black" d="M1169.46 555.14L1201.09 523.515L1130.39 452.803L1114.58 468.615L1098.75 484.428L1169.46 555.14Z" fill="black"/>
</svg>
