<svg xmlns="http://www.w3.org/2000/svg" viewBox="0 0 349.16 122.59"><path d="m323.86 81.87 25.3-25.3L292.59 0l-12.65 12.65-12.65 12.65zM12.31 41.09v79.84H0V41.09zM.44 99.52l34.38-34.04h15.3L8.98 106.07zm29.28-7.54 21.29 28.94H36.82L15.53 91.98zM108.89 65.48v55.44H96.03v-6.76c-2 2.74-4.44 4.82-7.32 6.26q-4.32 2.16-10.2 2.16c-4.51 0-8.26-.96-11.26-2.88-2.99-1.92-5.23-4.53-6.71-7.82s-2.22-7.04-2.22-11.26V65.47h12.86v35.15c0 4.58.7 7.84 2.11 9.76 1.4 1.92 3.92 2.88 7.54 2.88 5.03 0 8.82-1.68 11.37-5.05 2.55-3.36 3.83-8.33 3.83-14.91V65.47h12.86ZM135.06 65.48v7.98c1.92-3.25 4.38-5.67 7.37-7.26s6.49-2.38 10.48-2.38c4.58 0 8.39.94 11.42 2.83s5.28 4.47 6.76 7.76 2.22 7.04 2.22 11.26v35.26h-12.86V85.67c0-4.51-.72-7.72-2.16-9.65-1.44-1.92-3.9-2.88-7.37-2.88-5.47 0-9.48 1.68-12.03 5.05-2.55 3.36-3.83 8.3-3.83 14.8v27.95H122.2V65.5h12.86ZM197.82 109.56c.74 1.37 1.98 2.4 3.71 3.1 1.74.7 4.12 1.05 7.15 1.05 4.36 0 7.37-.63 9.04-1.89 1.66-1.26 2.49-3.29 2.49-6.1 0-1.62-.35-2.99-1.05-4.1s-1.98-2.01-3.83-2.72c-1.85-.7-4.44-1.24-7.76-1.61-4.58-.74-8.52-1.68-11.81-2.83-3.29-1.14-5.99-2.86-8.09-5.16s-3.09-5.25-2.94-8.87c0-2.73.83-5.38 2.49-7.93s4.25-4.64 7.76-6.27 7.89-2.44 13.14-2.44c4.88 0 9.07.74 12.59 2.22 3.51 1.48 6.19 3.48 8.04 5.99s2.77 5.21 2.77 8.1h-13.08c0-1.7-.32-3.11-.94-4.21-.63-1.11-1.68-1.92-3.16-2.44q-2.22-.78-6.21-.78c-4.07 0-6.8.68-8.21 2.05-1.4 1.37-2.11 3.16-2.11 5.38-.07 1.48.29 2.64 1.11 3.49.81.85 2.01 1.54 3.6 2.05 1.59.52 4.01 1.04 7.26 1.55 8.06 1.04 13.99 2.96 17.8 5.77s5.71 6.95 5.71 12.42c0 3.33-1 6.26-2.99 8.81-2 2.55-4.86 4.58-8.59 6.1-3.73 1.51-8.08 2.27-13.03 2.27q-7.875 0-13.53-2.49c-3.77-1.66-6.64-3.92-8.59-6.76-1.96-2.84-2.94-5.97-2.94-9.37h13.09c0 2.37.37 4.23 1.11 5.6ZM272.23 74.8h-32.71v-9.31h32.71zm-11.65-26.4v56.66c0 1.63.17 2.9.5 3.83s.87 1.57 1.61 1.94 1.7.55 2.88.55h6.65v9.54h-6.65c-3.18 0-6.12-.68-8.82-2.05s-4.84-3.23-6.43-5.6-2.38-5.1-2.38-8.21V48.4z" class="cls-1"/></svg>